<svg xmlns="http://www.w3.org/2000/svg" width="800" height="1200" viewBox="0 0 800 1200" preserveAspectRatio="xMidYMid slice">
  <defs>
    <linearGradient id="cielo" x1="0" y1="0" x2="0" y2="1">
      <stop offset="0" stop-color="#8ec3f0"/>
      <stop offset="0.55" stop-color="#cfe6fb"/>
      <stop offset="1" stop-color="#eef7ff"/>
    </linearGradient>
  </defs>
  <rect width="800" height="1200" fill="url(#cielo)"/>
  <circle cx="620" cy="200" r="70" fill="#fffbe6" opacity="0.9"/>
  <!-- montañas lejanas -->
  <polygon points="0,780 180,520 340,720 520,460 680,700 800,560 800,1200 0,1200" fill="#9fb8d4"/>
  <!-- montañas medias -->
  <polygon points="0,900 220,600 420,860 620,580 800,820 800,1200 0,1200" fill="#c4d6ea"/>
  <!-- nieve frontal -->
  <polygon points="0,1000 260,760 480,980 700,720 800,900 800,1200 0,1200" fill="#ffffff"/>
  <!-- detalles roca -->
  <polygon points="220,600 280,690 180,700" fill="#e8eef6"/>
  <polygon points="620,580 690,700 560,710" fill="#e8eef6"/>
</svg>
